<?xml version="1.0" encoding="iso-8859-1"?>
<!-- Generator: Adobe Illustrator 19.0.0, SVG Export Plug-In . SVG Version: 6.00 Build 0)  -->
<svg xmlns="http://www.w3.org/2000/svg" xmlns:xlink="http://www.w3.org/1999/xlink" version="1.1" id="Layer_1" x="0px" y="0px" viewBox="0 0 463.604 463.604" style="enable-background:new 0 0 463.604 463.604;" xml:space="preserve" width="512px" height="512px">
<g>
	<g>
		<path d="M333.411,33.924l-32-32c-3.356-2.874-8.406-2.483-11.28,0.873c-2.565,2.995-2.565,7.412,0,10.407l12.96,12.96l9.44,5.44    h-56.72c-4.418,0-8,3.582-8,8s3.582,8,8,8h56.72l-8.72,4.64l-13.68,13.68c-3.356,2.874-3.747,7.924-0.873,11.28    c2.874,3.356,7.924,3.747,11.28,0.873c0.313-0.268,0.605-0.56,0.873-0.873l32-32C336.512,42.083,336.512,37.044,333.411,33.924z" fill="#278589"/>
	</g>
</g>
<g>
	<g>
		<path d="M159.811,31.604h-40c-4.418,0-8,3.582-8,8s3.582,8,8,8h40c4.418,0,8-3.582,8-8S164.229,31.604,159.811,31.604z" fill="#278589"/>
	</g>
</g>
<g>
	<g>
		<path d="M87.811,31.604h-16c-4.418,0-8,3.582-8,8s3.582,8,8,8h16c4.418,0,8-3.582,8-8S92.229,31.604,87.811,31.604z" fill="#278589"/>
	</g>
</g>
<g>
	<g>
		<path d="M215.811,431.604h-16c-4.418,0-8,3.582-8,8s3.582,8,8,8h16c4.418,0,8-3.582,8-8S220.229,431.604,215.811,431.604z" fill="#278589"/>
	</g>
</g>
<g>
	<g>
		<path d="M383.811,392.244c0,0,0,0,0-0.64v-22.16c-0.024-6.013,0.702-12.006,2.16-17.84l6.88-27.44    c4.738-18.919,6.146-38.518,4.16-57.92l-8-50.48c-3.841-23.2-23.924-40.201-47.44-40.16h-5.76c-0.959,0.017-1.908,0.207-2.8,0.56    c-7.436-10.284-19.31-16.429-32-16.56h-5.2c-3.57-0.004-7.095,0.789-10.32,2.32c-7.332-11.368-19.913-18.261-33.44-18.32h-4.24    c-2.729,0.022-5.435,0.509-8,1.44v-81.44c0-17.673-14.327-32-32-32h-1.52c-16.892-0.036-30.902,13.064-32,29.92l-11.52,181.44    c-9.815-3.516-18.723-9.173-26.08-16.56l-7.2-7.2c-15.611-15.562-40.869-15.562-56.48,0l-4.56,4.4    c-5.576,5.605-6.222,14.443-1.52,20.8l15.12,20.32c2.724,3.749,5.234,7.649,7.52,11.68l1.68,3.2    c18.549,31.629,44.911,57.964,76.56,76.48c4.945,2.855,7.994,8.13,8,13.84v21.68c-0.017,0.293-0.017,0.587,0,0.88    c-10.64,8-16,20.8-16,39.12v24c0,4.418,3.582,8,8,8s8-3.582,8-8v-24c0-23.04,8.96-32,32-32h144c24,0,32,8,32,32h-136    c-4.418,0-8,3.582-8,8s3.582,8,8,8h136v8c0,4.418,3.582,8,8,8s8-3.582,8-8v-24C399.811,412.884,394.371,399.604,383.811,392.244z     M378.371,320.644l-6.88,27.44c-2.102,6.941-3.338,14.116-3.68,21.36v16c-5.248-1.206-10.615-1.823-16-1.84h-144    c-5.386-0.006-10.756,0.611-16,1.84v-15.44c0.074-11.506-6.035-22.167-16-27.92c-29.191-17.06-53.514-41.328-70.64-70.48    l-1.36-2.88c-2.682-4.537-5.62-8.917-8.8-13.12l-15.2-20.56l4.4-4.48c9.37-9.359,24.55-9.359,33.92,0l7.2,7.2    c10.096,10.178,22.584,17.659,36.32,21.76l-1.04,16.88c-0.325,4.336,2.873,8.137,7.2,8.56h0.8c4.237,0.008,7.746-3.29,8-7.52    l13.76-214.88c0.549-8.428,7.554-14.978,16-14.96h1.44c8.837,0,16,7.163,16,16v136c0,4.418,3.582,8,8,8s8-3.582,8-8v-32    c0-4.418,3.582-8,8-8h4.24c12.046-0.119,22.314,8.712,24,20.64l3.76,28.48c0.562,3.976,3.985,6.919,8,6.88h1.12    c4.381-0.57,7.471-4.583,6.902-8.965c-0.007-0.052-0.014-0.104-0.022-0.155l-4.08-28.56c0,0,0-0.56,0-0.88    c1.202-0.846,2.614-1.344,4.08-1.44h4.88c11.864-0.159,22.063,8.374,24,20.08l3.12,21.28c0.669,3.881,4.063,6.697,8,6.64h1.36    c4.366-0.677,7.356-4.766,6.679-9.132c-0.012-0.076-0.025-0.152-0.039-0.228l-3.52-21.28c0-0.48,0-0.96,0-1.44h1.84    c15.904-0.192,29.536,11.326,32,27.04l8,50.08C383.893,286.064,382.621,303.658,378.371,320.644z" fill="#278589"/>
	</g>
</g>
<g>
</g>
<g>
</g>
<g>
</g>
<g>
</g>
<g>
</g>
<g>
</g>
<g>
</g>
<g>
</g>
<g>
</g>
<g>
</g>
<g>
</g>
<g>
</g>
<g>
</g>
<g>
</g>
<g>
</g>
</svg>
